#!OML:ASF F:\VICON\USERDATA\INSTALL\rory3\rory3.ASF
:FULLY-SPECIFIED
:DEGREES
898
root 0.795233 15.3093 3.78392 9.18761 -49.4554 15.1282
lowerback 4.49588 8.84689 7.63584
upperback 5.75196 12.0174 -4.25798
thorax 6.13781 6.5273 -8.36901
lowerneck -1.18529 -5.2281 -6.19978
upperneck 51.7354 -13.7668 10.1867
head 24.6359 -5.68725 4.62157
rclavicle 5.64548e-014 -4.77083e-014
rhumerus -48.6857 54.5207 -131.434
rradius 91.5565
rwrist -26.6056
rhand 25.1302 -24.8743
rfingers 7.12502
rthumb 49.2806 -46.4668
lclavicle 5.64548e-014 -4.77083e-014
lhumerus -6.37692 -77.7595 86.7645
lradius 100.771
lwrist 29.9057
lhand -4.60085 -21.0234
lfingers 7.12502
lthumb 21.1769 7.83996
rfemur -68.1363 -7.47647 8.76977
rtibia 89.2302
rfoot -11.1943 -13.3394
rtoes -30.6349
lfemur -57.9609 -22.2819 -29.5089
ltibia 63.1598
lfoot -24.1257 4.17523
ltoes 13.8399
899
root 0.789325 15.3204 3.82329 8.65329 -49.5325 15.7868
lowerback 4.06523 8.88907 7.27775
upperback 5.88658 12.0515 -4.36026
thorax 6.47685 6.54455 -8.19881
lowerneck -1.12041 -5.19037 -6.07124
upperneck 51.6544 -13.7464 10.2558
head 24.4968 -5.64791 4.63071
rclavicle -1.32788e-013 1.36764e-013
rhumerus -46.685 55.3177 -130.176
rradius 90.7566
rwrist -27.5436
rhand 24.609 -24.4926
rfingers 7.12502
rthumb 48.8019 -46.3224
lclavicle -1.32788e-013 1.36764e-013
lhumerus -6.71787 -77.83 87.1151
lradius 100.723
lwrist 30.0521
lhand -5.31813 -20.9409
lfingers 7.12502
lthumb 20.4877 7.99812
rfemur -67.8406 -7.8033 8.13289
rtibia 89.1927
rfoot -11.4599 -12.9991
rtoes -30.6614
lfemur -57.5763 -22.5435 -30.1314
ltibia 63.0338
lfoot -24.2618 4.52091
ltoes 13.5708
900
root 0.795986 15.3224 3.84291 8.60363 -49.2047 15.9049
lowerback 3.90256 8.81609 7.3714
upperback 5.9733 11.9491 -4.38055
thorax 6.6684 6.50893 -8.24449
lowerneck -1.28054 -5.23419 -5.85281
upperneck 51.683 -13.8413 10.1938
head 24.5729 -5.63563 4.52959
rclavicle -2.70347e-014 -5.56597e-014
rhumerus -47.0045 54.986 -130.305
rradius 91
rwrist -27.1776
rhand 24.6619 -24.7011
rfingers 7.12502
rthumb 48.8506 -46.5071
lclavicle -2.70347e-014 -5.56597e-014
lhumerus -6.31096 -77.9546 86.757
lradius 100.736
lwrist 30.2489
lhand -5.61287 -20.7185
lfingers 7.12502
lthumb 20.2045 8.25079
rfemur -67.701 -8.26841 7.98219
rtibia 89.1992
rfoot -11.8195 -12.714
rtoes -29.9481
lfemur -57.5135 -22.9035 -30.2458
ltibia 62.9799
lfoot -24.2083 4.37118
ltoes 14.2737
901
root 0.806133 15.3259 3.8408 9.19255 -49.1633 15.2363
lowerback 4.09967 8.8419 7.8206
upperback 5.90233 11.9958 -4.28454
thorax 6.57053 6.54804 -8.41523
lowerneck -1.43443 -5.3015 -5.65674
upperneck 51.7613 -13.9601 10.081
head 24.7028 -5.64085 4.4038
rclavicle -4.6118e-014 4.6118e-014
rhumerus -46.3353 54.9381 -129.773
rradius 90.919
rwrist -27.4054
rhand 25.6407 -25.5672
rfingers 7.12502
rthumb 49.7488 -46.9209
lclavicle -4.6118e-014 4.6118e-014
lhumerus -5.85654 -77.9776 86.3701
lradius 100.762
lwrist 30.5505
lhand -4.89199 -20.5243
lfingers 7.12502
lthumb 20.8972 8.37017
rfemur -67.7609 -8.11412 8.44673
rtibia 89.1277
rfoot -12.1337 -12.5446
rtoes -28.6505
lfemur -57.765 -22.9015 -29.6448
ltibia 62.9758
lfoot -24.0994 4.02595
ltoes 15.4418
902
root 0.81405 15.3291 3.83701 9.68987 -49.2025 14.6615
lowerback 4.35795 8.84669 8.15284
upperback 5.75958 12.0194 -4.19652
thorax 6.32933 6.56083 -8.55232
lowerneck -1.449 -5.30103 -5.57722
upperneck 51.8986 -13.9515 9.94945
head 24.8212 -5.6318 4.32446
rclavicle 7.23576e-014 2.38542e-014
rhumerus -46.0274 54.9957 -129.615
rradius 90.7495
rwrist -27.5999
rhand 26.052 -25.7865
rfingers 7.12502
rthumb 50.1252 -46.9432
lclavicle 7.23576e-014 2.38542e-014
lhumerus -5.99124 -78.0017 86.4779
lradius 100.755
lwrist 30.5572
lhand -4.65765 -20.297
lfingers 7.12502
lthumb 21.1223 8.5725
rfemur -67.8033 -7.89928 8.86678
rtibia 89.029
rfoot -12.1644 -12.5731
rtoes -28.3382
lfemur -57.9929 -22.924 -29.0963
ltibia 62.9941
lfoot -24.0416 4.04156
ltoes 15.6488
903
root 0.818981 15.3334 3.84596 9.74503 -49.197 14.6895
lowerback 4.40505 8.8202 8.07448
upperback 5.63981 11.9858 -4.1671
thorax 6.13802 6.52671 -8.5022
lowerneck -1.37308 -5.26342 -5.60072
upperneck 52.0512 -13.8629 9.81601
head 24.9134 -5.61829 4.28427
rclavicle 6.36111e-014 -9.22361e-014
rhumerus -46.2588 54.9931 -129.843
rradius 90.6566
rwrist -27.8329
rhand 25.6239 -25.9236
rfingers 7.12502
rthumb 49.7334 -47.2852
lclavicle 6.36111e-014 -9.22361e-014
lhumerus -7.05414 -78.0589 87.499
lradius 100.731
lwrist 30.4643
lhand -5.08194 -20.3095
lfingers 7.12502
lthumb 20.7147 8.60497
rfemur -67.7965 -7.99887 8.8378
rtibia 88.949
rfoot -12.0364 -12.6192
rtoes -29.1744
lfemur -58.0291 -23.005 -29.1054
ltibia 62.9369
lfoot -24.0231 4.25805
ltoes 15.0674
904
root 0.824015 15.3411 3.86332 9.69375 -49.1671 14.8596
lowerback 4.35476 8.79541 7.94783
upperback 5.56506 11.9479 -4.14453
thorax 6.04078 6.49325 -8.41328
lowerneck -1.26916 -5.2248 -5.70828
upperneck 52.1468 -13.7886 9.78301
head 24.975 -5.62085 4.31584
rclavicle -7.95139e-015 -1.27222e-014
rhumerus -46.433 54.9616 -129.97
rradius 90.5864
rwrist -28.096
rhand 25.4294 -26.2059
rfingers 7.12502
rthumb 49.5551 -47.6591
lclavicle -7.95139e-015 -1.27222e-014
lhumerus -8.14225 -78.0249 88.5998
lradius 100.721
lwrist 30.4014
lhand -5.33913 -20.6485
lfingers 7.12502
lthumb 20.4675 8.29269
rfemur -67.7686 -8.18926 8.66224
rtibia 88.9067
rfoot -12.1396 -12.4984
rtoes -29.7417
lfemur -57.9456 -23.0265 -29.3808
ltibia 62.7984
lfoot -23.9247 4.52
ltoes 14.6839
905
root 0.828108 15.3418 3.87428 9.75582 -49.0974 14.9161
lowerback 4.23501 8.76513 7.96641
upperback 5.57247 11.9021 -4.15386
thorax 6.1124 6.47432 -8.41626
lowerneck -1.23733 -5.20357 -5.74679
upperneck 52.1243 -13.7342 9.78134
head 24.9213 -5.60797 4.33102
rclavicle 6.83819e-014 2.70347e-014
rhumerus -46.2706 54.9674 -129.846
rradius 90.5607
rwrist -28.1058
rhand 25.9421 -26.5097
rfingers 7.12502
rthumb 50.0247 -47.7195
lclavicle 6.83819e-014 2.70347e-014
lhumerus -7.86705 -78.0047 88.325
lradius 100.694
lwrist 30.1381
lhand -5.17522 -20.6909
lfingers 7.12502
lthumb 20.625 8.23327
rfemur -67.842 -8.32771 8.59218
rtibia 88.9286
rfoot -12.411 -12.3675
rtoes -28.8294
lfemur -57.9188 -23.0443 -29.6296
ltibia 62.652
lfoot -23.7178 5.03238
ltoes 14.1115
906
root 0.831951 15.3394 3.88044 9.80022 -49.0599 14.9247
lowerback 4.21673 8.72159 7.98401
upperback 5.5809 11.8429 -4.15722
thorax 6.12353 6.44645 -8.43099
lowerneck -1.20302 -5.19585 -5.73502
upperneck 52.0741 -13.6733 9.71241
head 24.7973 -5.58552 4.2898
rclavicle -9.54166e-014 5.08889e-014
rhumerus -46.3051 55.0006 -129.922
rradius 90.5608
rwrist -27.9302
rhand 26.2982 -26.648
rfingers 7.12502
rthumb 50.3503 -47.6849
lclavicle -9.54166e-014 5.08889e-014
lhumerus -7.69365 -78.0376 88.118
lradius 100.66
lwrist 30.0541
lhand -5.20258 -20.3009
lfingers 7.12502
lthumb 20.5988 8.62612
rfemur -67.8605 -8.31836 8.50055
rtibia 88.9616
rfoot -12.9204 -12.0665
rtoes -26.1595
lfemur -57.9184 -23.0806 -29.7295
ltibia 62.5573
lfoot -23.6119 5.20375
ltoes 14.265
907
root 0.835175 15.3391 3.89 9.74592 -49.118 14.9291
lowerback 4.35522 8.68819 7.93194
upperback 5.56042 11.8032 -4.13854
thorax 5.99804 6.41772 -8.4127
lowerneck -1.238 -5.20012 -5.66706
upperneck 52.1213 -13.6353 9.55435
head 24.7972 -5.56742 4.18777
rclavicle 3.33958e-014 5.24792e-014
rhumerus -46.9493 54.8976 -130.448
rradius 90.6629
rwrist -27.7265
rhand 26.0097 -26.2156
rfingers 7.12502
rthumb 50.0866 -47.3927
lclavicle 3.33958e-014 5.24792e-014
lhumerus -8.38155 -78.0411 88.7489
lradius 100.672
lwrist 30.2458
lhand -5.80047 -20.0077
lfingers 7.12502
lthumb 20.0242 8.98052
rfemur -67.6956 -8.09005 8.24638
rtibia 89.0093
rfoot -13.9232 -11.1973
rtoes -21.8895
lfemur -57.8259 -23.0336 -29.8135
ltibia 62.5138
lfoot -23.6197 5.16715
ltoes 14.4602
908
root 0.837907 15.3376 3.89657 9.77402 -49.1891 14.8794
lowerback 4.47066 8.76457 7.93225
upperback 5.5377 11.9133 -4.16825
thorax 5.94042 6.47193 -8.45583
lowerneck -1.25075 -5.27865 -5.43309
upperneck 52.1273 -13.7643 9.45863
head 24.772 -5.56958 4.0551
rclavicle -1.35969e-013 3.97569e-014
rhumerus -48.4905 54.0649 -131.291
rradius 91.4169
rwrist -26.9149
rhand 25.8478 -25.6024
rfingers 7.12502
rthumb 49.9384 -46.8575
lclavicle -1.35969e-013 3.97569e-014
lhumerus -8.24076 -78.3274 88.5531
lradius 100.717
lwrist 30.2736
lhand -5.93688 -19.959
lfingers 7.12502
lthumb 19.893 9.04285
rfemur -67.764 -7.94576 8.36545
rtibia 88.9595
rfoot -13.0574 -12.2162
rtoes -25.3437
lfemur -57.7978 -22.8859 -29.8828
ltibia 62.5104
lfoot -23.5598 5.40495
ltoes 13.346
